<?xml version="1.0" encoding="UTF-8"?> <svg xmlns="http://www.w3.org/2000/svg" width="20" height="20" viewBox="0 0 20 20" fill="none"><g clip-path="url(#clip0_17492_38380)"><path d="M14.129 5.19364C13.993 4.96857 13.7236 4.86161 13.4703 4.93226C13.2168 5.00291 13.0417 5.23362 13.0417 5.49668C13.0417 6.21186 12.4598 6.79353 11.7448 6.79353C11.0296 6.79353 10.448 6.21186 10.448 5.49668V0.585946C10.448 0.348977 10.3051 0.135353 10.0862 0.0445637C9.86722 -0.0460736 9.61514 0.00412788 9.4476 0.171669C9.38199 0.237435 7.81934 1.80894 6.23639 4.18351C5.30301 5.58366 4.55807 6.97251 4.02249 8.31147C3.34409 10.0076 3 11.6316 3 13.138C3 16.9217 6.07831 20 9.86188 20C13.6456 20 16.7239 16.9217 16.7239 13.138C16.7239 10.7161 15.8508 8.04322 14.129 5.19364ZM9.86188 18.8281C6.72452 18.8281 4.17187 16.2755 4.17187 13.138C4.17187 10.0496 5.81784 6.9278 7.19876 4.85261C7.9472 3.72788 8.70145 2.78001 9.27594 2.10587V5.49668C9.27594 6.85792 10.3834 7.9654 11.7447 7.9654C12.5769 7.9654 13.3143 7.55158 13.7617 6.9188C14.9504 9.15711 15.552 11.2448 15.552 13.138C15.552 16.2755 12.9995 18.8281 9.86188 18.8281Z" fill="black"></path><path d="M13.1859 9.88935H10.6755C10.3518 9.88935 10.0895 10.1517 10.0895 10.4751C10.0894 10.7988 10.3518 11.0612 10.6753 11.0612H11.7714L9.268 13.5644L7.90723 12.2037C7.6785 11.9749 7.3074 11.9749 7.07867 12.2037L5.74719 13.535C5.51831 13.7639 5.51831 14.1348 5.74704 14.3637C5.97592 14.5926 6.34686 14.5924 6.57574 14.3637L7.49295 13.4466L8.85358 14.8074C8.96344 14.9173 9.11252 14.9791 9.268 14.9791C9.42334 14.9791 9.57242 14.9173 9.68228 14.8074L12.5999 11.8899V12.9857C12.5999 13.3092 12.8622 13.5716 13.1859 13.5716C13.5095 13.5716 13.7718 13.3092 13.7718 12.9857V10.4753C13.7718 10.1517 13.5095 9.88935 13.1859 9.88935Z" fill="black"></path></g><defs><clipPath id="clip0_17492_38380"><rect width="20" height="20" fill="white"></rect></clipPath></defs></svg> 